<?xml version="1.0" standalone="no"?>
<!DOCTYPE svg PUBLIC "-//W3C//DTD SVG 20010904//EN"
 "http://www.w3.org/TR/2001/REC-SVG-20010904/DTD/svg10.dtd">
<svg version="1.0" xmlns="http://www.w3.org/2000/svg"
 width="5556.000000pt" height="5044.000000pt" viewBox="0 0 5556.000000 5044.000000"
 preserveAspectRatio="xMidYMid meet">

<g transform="translate(0.000000,5044.000000) scale(0.100000,-0.100000)"
fill="#000000" stroke="none">
<path d="M37965 41180 c-62 -24 -131 -89 -159 -150 -15 -33 -21 -65 -21 -120
0 -112 20 -147 177 -306 l132 -135 -131 -132 c-143 -144 -172 -189 -180 -278
-16 -171 116 -313 292 -313 104 0 151 29 300 180 68 68 126 124 131 124 4 0
67 -58 140 -130 153 -151 191 -173 299 -174 166 -1 289 122 289 289 0 108 -22
146 -176 302 -119 120 -130 134 -117 150 8 10 67 72 131 137 142 144 163 180
162 286 0 61 -5 84 -26 125 -69 134 -211 194 -354 149 -54 -16 -72 -31 -202
-158 l-142 -140 -133 131 c-74 73 -152 141 -177 153 -64 33 -168 37 -235 10z
m195 -71 c30 -13 94 -69 197 -172 l152 -151 163 160 c171 168 195 184 282 184
120 0 229 -126 212 -246 -9 -70 -29 -97 -187 -257 -82 -83 -149 -153 -149
-156 0 -4 66 -71 146 -151 80 -80 155 -163 167 -185 27 -52 29 -145 3 -195
-54 -103 -153 -147 -259 -116 -51 15 -69 30 -216 176 l-161 159 -158 -159
c-149 -148 -163 -160 -217 -176 -50 -14 -66 -15 -113 -4 -94 21 -172 119 -172
215 0 77 19 106 182 271 87 88 158 163 158 167 0 4 -69 76 -154 161 -173 175
-193 207 -183 298 18 150 171 238 307 177z"/>
<path d="M16043 40144 c-200 -43 -392 -180 -498 -353 -152 -251 -154 -564 -4
-818 46 -77 190 -222 264 -265 139 -80 256 -110 420 -109 330 1 622 213 729
529 87 254 34 542 -138 750 -102 125 -285 236 -438 266 -93 19 -250 19 -335 0z
m388 -87 c238 -81 410 -265 475 -507 25 -96 24 -253 -4 -353 -122 -435 -579
-649 -992 -464 -241 107 -410 375 -410 650 0 305 206 584 500 676 93 29 102
30 235 27 99 -2 133 -7 196 -29z"/>
<path d="M16140 39641 c-126 -39 -212 -169 -195 -295 35 -270 402 -324 514
-76 47 104 16 240 -72 315 -63 54 -171 79 -247 56z m183 -97 c65 -46 88 -95
85 -176 -3 -57 -8 -72 -34 -105 -90 -111 -248 -110 -326 3 -122 178 99 401
275 278z"/>
<path d="M14783 33019 c-641 -49 -1215 -447 -1494 -1034 -93 -195 -149 -401
-168 -615 -8 -79 -11 -2738 -11 -8562 l0 -8448 -533 0 c-614 0 -607 1 -687
-79 -74 -74 -95 -157 -65 -257 19 -64 65 -118 129 -152 l51 -27 598 -5 599 -5
33 -85 c83 -215 210 -419 364 -582 l63 -68 -2598 -2 -2599 -3 -41 -22 c-97
-52 -139 -122 -139 -233 0 -64 4 -82 27 -122 36 -60 88 -102 147 -119 38 -12
3170 -14 19336 -14 17847 0 19293 2 19326 17 57 25 115 83 139 140 18 43 21
65 18 119 -8 102 -62 180 -155 221 -22 10 -577 14 -2625 18 l-2597 5 32 35
c173 185 322 423 398 633 l24 66 600 3 c662 3 631 0 709 68 59 53 81 102 81
190 0 109 -44 182 -140 234 -39 21 -49 21 -602 24 l-563 3 0 8497 c0 9260 4
8569 -55 8804 -87 342 -293 677 -559 909 -300 263 -670 418 -1069 449 -149 12
-25823 11 -25974 -1z m26102 -532 c277 -68 476 -177 660 -362 215 -215 339
-471 375 -775 8 -70 10 -2359 8 -8605 l-3 -8510 -23 -97 c-120 -522 -502 -900
-1024 -1015 -80 -17 -550 -18 -13098 -18 -12392 0 -13019 1 -13097 18 -256 55
-463 163 -644 335 -212 201 -346 451 -393 731 -15 86 -16 891 -16 8615 0 7495
2 8532 15 8613 72 442 382 830 798 998 90 36 216 71 306 84 31 5 5908 8 13061
7 12272 -1 13009 -2 13075 -19z"/>
<path d="M22315 29601 c-69 -17 -125 -62 -161 -131 -18 -34 -19 -219 -19
-6811 l0 -6776 30 -49 c19 -30 49 -60 79 -79 l49 -30 5466 -3 c3954 -2 5477 0
5504 8 49 14 115 74 138 125 18 39 19 235 19 5354 0 5294 0 5315 -20 5356 -14
30 -237 251 -782 776 -419 404 -830 799 -913 879 -82 80 -285 276 -450 435
-165 159 -354 342 -420 406 -384 372 -515 493 -555 517 l-45 27 -3945 2
c-2170 0 -3958 -2 -3975 -6z m7617 -1838 l3 -1368 22 -40 c25 -47 64 -85 113
-111 34 -18 92 -19 1458 -22 l1422 -2 0 -5010 0 -5010 -5170 0 -5170 0 0 6465
0 6465 3660 0 3660 0 2 -1367z m728 801 c69 -66 188 -181 265 -255 391 -377
757 -729 995 -959 146 -141 353 -341 460 -444 107 -103 197 -192 198 -197 2
-5 -414 -9 -1082 -9 l-1086 0 0 1052 0 1052 63 -60 c34 -33 118 -114 187 -180z"/>
<path d="M29350 24551 c-14 -4 -39 -15 -55 -24 -17 -9 -370 -356 -785 -771
l-755 -756 -735 734 c-404 404 -748 741 -765 749 -201 99 -416 -109 -324 -313
15 -35 188 -213 752 -778 l732 -732 -737 -738 c-517 -516 -742 -748 -753 -774
-21 -51 -19 -144 4 -193 23 -49 74 -99 123 -119 49 -21 143 -20 191 2 26 11
281 259 773 752 l735 734 757 -756 c585 -585 767 -762 802 -777 65 -30 143
-28 209 5 120 60 165 213 96 329 -13 22 -359 375 -769 785 -410 410 -746 749
-746 755 0 5 338 348 752 760 828 827 806 802 795 910 -9 88 -56 158 -131 197
-43 22 -128 32 -166 19z"/>
<path d="M47410 28121 c-288 -63 -516 -282 -596 -572 -25 -89 -25 -299 0 -388
69 -252 253 -453 496 -541 403 -148 852 63 1001 470 156 429 -97 909 -541
1024 -101 27 -258 30 -360 7z m365 -81 c121 -38 202 -87 296 -180 96 -95 147
-176 187 -298 21 -64 25 -97 26 -197 1 -143 -15 -211 -76 -335 -34 -68 -60
-103 -133 -175 -72 -73 -107 -99 -175 -133 -120 -60 -193 -76 -330 -77 -93 0
-129 5 -190 23 -100 32 -175 71 -249 131 -329 264 -361 752 -68 1051 99 102
226 174 362 204 95 21 256 15 350 -14z"/>
<path d="M47507 27616 c-103 -28 -176 -109 -198 -217 -32 -159 100 -314 266
-312 154 1 268 115 268 268 0 107 -54 195 -146 239 -66 32 -129 39 -190 22z
m118 -67 c201 -55 196 -335 -8 -390 -97 -26 -212 45 -236 148 -18 72 0 135 54
189 56 56 117 73 190 53z"/>
<path d="M7137 28016 c-92 -33 -164 -109 -188 -201 -16 -57 -6 -152 21 -205
13 -25 80 -103 153 -177 l131 -133 -140 -142 c-116 -117 -144 -152 -157 -192
-66 -195 70 -389 273 -389 106 0 146 24 300 178 l134 134 136 -132 c158 -156
198 -179 305 -180 166 0 288 120 289 286 0 111 -21 147 -179 307 l-135 136
135 134 c155 154 178 194 179 300 0 110 -53 199 -154 258 -40 24 -55 27 -135
27 -69 0 -98 -4 -125 -19 -19 -10 -97 -80 -172 -154 l-138 -136 -133 131
c-154 153 -204 183 -302 182 -33 0 -77 -6 -98 -13z m183 -77 c30 -13 94 -69
198 -172 l152 -152 158 157 c166 166 198 188 277 188 160 0 271 -177 198 -315
-12 -22 -89 -107 -172 -190 l-151 -149 154 -156 c84 -85 162 -171 171 -190 43
-84 11 -214 -67 -270 -60 -44 -124 -55 -195 -35 -53 16 -69 28 -218 176 l-161
159 -149 -151 c-83 -83 -168 -160 -190 -171 -139 -73 -315 37 -315 197 0 79
22 111 188 277 l156 158 -151 153 c-163 163 -192 208 -193 288 0 48 36 133 69
163 62 56 162 71 241 35z"/>
<path d="M7325 16756 c-245 -57 -435 -205 -540 -421 -64 -131 -79 -197 -79
-345 0 -100 4 -141 22 -204 65 -226 209 -400 417 -501 119 -58 203 -78 340
-78 127 0 212 18 323 69 213 97 368 279 434 510 29 103 31 295 4 394 -73 269
-274 477 -541 560 -90 28 -291 37 -380 16z m329 -76 c215 -55 372 -184 471
-385 131 -267 86 -568 -118 -791 -109 -119 -246 -192 -413 -220 -209 -36 -428
30 -589 177 -184 169 -270 428 -220 664 58 275 257 485 525 554 102 27 243 27
344 1z"/>
<path d="M7399 16244 c-63 -19 -131 -81 -159 -146 -59 -135 -3 -289 128 -355
51 -25 183 -25 233 0 93 46 153 141 152 242 0 188 -174 315 -354 259z m167
-73 c103 -47 148 -174 98 -273 -69 -134 -260 -146 -342 -22 -39 59 -47 103
-28 167 34 117 163 177 272 128z"/>
<path d="M9775 14351 c-107 -26 -195 -140 -195 -251 0 -61 31 -132 78 -179 79
-78 51 -75 736 -79 418 -2 626 1 663 8 29 6 74 26 100 43 135 92 144 296 19
404 -75 63 -73 63 -755 62 -339 -1 -629 -4 -646 -8z"/>
<path d="M44470 14345 c-174 -55 -230 -294 -99 -424 19 -19 54 -44 79 -55 44
-21 57 -21 690 -21 713 0 676 -3 754 65 59 52 80 102 81 190 0 109 -43 182
-139 233 -41 22 -45 22 -681 24 -527 2 -648 -1 -685 -12z"/>
<path d="M6240 13091 c-80 -25 -132 -71 -168 -149 -20 -45 -24 -65 -20 -116 8
-101 55 -170 145 -215 42 -21 51 -21 695 -21 728 0 694 -3 766 70 104 108 95
290 -19 381 -75 59 -72 59 -753 58 -342 0 -632 -4 -646 -8z"/>
<path d="M48011 13089 c-77 -23 -150 -95 -171 -170 -28 -95 3 -205 75 -268 73
-64 42 -61 757 -61 640 0 652 0 695 21 23 11 60 41 82 65 122 139 53 368 -126
413 -54 14 -1263 13 -1312 0z"/>
<path d="M50306 10824 c-74 -23 -159 -113 -182 -189 -20 -72 -14 -156 17 -218
12 -23 80 -102 152 -174 l131 -133 -131 -132 c-73 -74 -140 -153 -153 -177
-70 -138 -9 -315 134 -388 42 -22 64 -27 126 -27 114 1 149 21 306 176 l134
132 133 -132 c156 -154 194 -177 302 -176 168 0 289 120 289 289 0 104 -24
145 -177 302 l-130 133 129 132 c153 157 177 198 178 303 0 118 -54 208 -159
263 -42 23 -62 27 -130 26 -110 0 -142 -19 -302 -177 l-133 -131 -134 132
c-93 91 -149 139 -182 154 -62 27 -155 32 -218 12z m184 -75 c30 -13 96 -71
197 -172 l153 -151 162 160 c130 127 171 163 204 172 90 26 158 9 224 -57 39
-39 50 -59 61 -105 11 -50 10 -64 -5 -113 -16 -51 -34 -72 -170 -210 -83 -85
-153 -156 -155 -159 -3 -2 63 -73 146 -157 154 -155 176 -185 188 -250 26
-138 -114 -278 -252 -252 -65 12 -95 34 -250 188 -84 83 -155 149 -157 146 -3
-2 -72 -70 -154 -150 -156 -155 -186 -176 -254 -185 -126 -17 -248 91 -248
220 0 78 19 106 184 274 l160 162 -156 158 c-174 176 -196 211 -185 302 7 58
24 95 64 134 64 65 160 83 243 45z"/>
<path d="M13703 5306 c-131 -43 -203 -144 -203 -285 0 -100 24 -140 173 -290
70 -71 127 -134 127 -142 0 -7 -57 -69 -126 -138 -159 -158 -178 -194 -172
-316 4 -71 9 -91 34 -132 80 -130 248 -178 382 -109 28 15 98 76 172 150 69
69 129 126 135 126 5 0 66 -57 135 -126 78 -78 144 -135 174 -151 183 -93 399
30 414 237 8 120 -9 153 -171 318 l-141 142 141 143 c121 122 142 149 158 196
35 108 7 228 -72 307 -56 56 -114 79 -203 78 -106 0 -147 -25 -300 -178 -69
-69 -130 -126 -135 -126 -6 0 -68 58 -140 130 -142 142 -186 169 -284 176 -31
2 -75 -2 -98 -10z m172 -80 c35 -17 93 -67 195 -170 80 -80 149 -146 155 -146
6 0 80 70 165 155 135 135 162 158 206 172 140 44 284 -59 284 -204 0 -87 -19
-116 -188 -285 l-157 -158 157 -157 c168 -169 188 -199 188 -283 0 -148 -138
-249 -285 -209 -32 9 -72 43 -200 170 -89 87 -165 159 -170 159 -5 0 -81 -72
-170 -159 -168 -167 -189 -181 -275 -181 -51 0 -133 42 -165 84 -41 54 -57
125 -43 189 10 49 21 62 176 220 l166 167 -167 169 c-92 92 -167 172 -167 177
-1 5 -5 29 -9 53 -19 95 30 190 121 235 65 32 118 33 183 2z"/>
<path d="M33324 4256 c-100 -19 -136 -32 -239 -84 -111 -57 -240 -179 -303
-287 -136 -231 -146 -510 -28 -749 77 -154 198 -275 351 -351 132 -65 196 -79
350 -79 105 -1 145 4 210 22 211 60 394 212 489 407 73 149 99 302 77 456 -56
379 -361 655 -746 674 -54 3 -119 -1 -161 -9z m307 -81 c35 -9 102 -35 149
-58 68 -33 102 -58 170 -127 97 -97 150 -180 186 -294 105 -333 -50 -693 -368
-853 -88 -44 -167 -64 -278 -70 -579 -30 -949 614 -631 1099 109 167 284 282
483 318 71 12 209 5 289 -15z"/>
<path d="M33352 3735 c-101 -44 -166 -142 -166 -249 1 -156 114 -270 269 -270
110 0 192 51 242 149 67 131 5 304 -131 366 -50 23 -166 25 -214 4z m204 -80
c46 -27 87 -86 99 -141 17 -86 -57 -200 -146 -224 -168 -45 -311 133 -230 288
50 96 182 133 277 77z"/>
</g>
</svg>
